<svg xmlns="http://www.w3.org/2000/svg" viewBox="0 0 64 64" fill="none">
  <path d="M32 4c-2 0-4 2-6 5-3 4-5 8-5 12 0 3 1 6 3 8l-8 6c-2 1-3 3-3 5 0 3 2 5 5 6l7 2-3 8c-1 2 0 4 2 5s4 0 5-2l4-8 4 8c1 2 3 3 5 2s3-3 2-5l-3-8 7-2c3-1 5-3 5-6 0-2-1-4-3-5l-8-6c2-2 3-5 3-8 0-4-2-8-5-12-2-3-4-5-6-5z" fill="#FFD700"/>
  <path d="M32 8c-1 0-3 2-4 4-2 3-4 7-4 10 0 2 1 4 2 6l2 1 4-4 4 4 2-1c1-2 2-4 2-6 0-3-2-7-4-10-1-2-3-4-4-4z" fill="#0B1215"/>
  <circle cx="29" cy="18" r="1.5" fill="#FFD700"/>
  <circle cx="35" cy="18" r="1.5" fill="#FFD700"/>
  <path d="M30 22h4l-2 3z" fill="#B22234"/>
</svg>
